<?xml version="1.0" encoding="utf-8"?>
<!-- Generator: Adobe Illustrator 24.3.0, SVG Export Plug-In . SVG Version: 6.00 Build 0)  -->
<svg version="1.1" xmlns="http://www.w3.org/2000/svg" xmlns:xlink="http://www.w3.org/1999/xlink" x="0px" y="0px"
	 viewBox="0 0 598 598" style="enable-background:new 0 0 598 598;" xml:space="preserve">
<style type="text/css">
	.st0{display:none;}
	.st1{display:inline;}
	.st2{fill:#FFFFFF;}
	.st3{fill:#800000;}
	.st4{fill:#737373;}
	.st5{fill:none;stroke:#800000;stroke-width:2.5;stroke-miterlimit:10;}
	.st6{fill:none;stroke:#000000;stroke-width:2.5;stroke-miterlimit:10;}
	.st7{fill:none;stroke:#737373;stroke-width:2.5;stroke-miterlimit:10;}
	.st8{fill:none;stroke:#FFFFFF;stroke-width:2.5;stroke-miterlimit:10;}
</style>
<g id="Background" class="st0">
	<rect x="0.33" y="0" class="st1" width="598" height="598"/>
</g>
<g id="background_x5F_fill">
	<path class="st2" d="M299.33,49.64c-137.15,0-248.32,111.17-248.32,248.32s111.17,248.33,248.32,248.33
		c137.15,0,248.32-111.18,248.32-248.33S436.48,49.64,299.33,49.64z"/>
</g>
<g id="outer_x5F_circle_x5F_fill">
	<path class="st3" d="M299.33,47.96c-138.08,0-250,111.92-250,250s111.92,250.01,250,250.01c138.08,0,250-111.93,250-250.01
		S437.41,47.96,299.33,47.96z M299.33,485.25c-103.44,0-187.29-83.85-187.29-187.29s83.85-187.28,187.29-187.28
		c103.44,0,187.28,83.84,187.28,187.28S402.77,485.25,299.33,485.25z"/>
</g>
<g id="outer_x5F_circle_1_">
</g>
<g id="inner_x5F_circle">
	<path class="st3" d="M122.62,297.96c0-97.43,79.28-176.7,176.71-176.7c97.43,0,176.7,79.27,176.7,176.7
		c0,97.45-79.28,176.7-176.7,176.7C201.9,474.67,122.62,395.41,122.62,297.96 M120.19,297.96c0,98.78,80.36,179.14,179.14,179.14
		c98.77,0,179.14-80.36,179.14-179.14c0-98.77-80.36-179.13-179.14-179.13C200.55,118.83,120.19,199.19,120.19,297.96"/>
</g>
<g id="shield">
	<path class="st3" d="M262.06,236.24c-0.91,0.69,1.08,1.64,0.9,1.59c0.07,2.82-0.34,5.72,0.62,7.15c0.61,0.89,2.5,1.55,2.83,0.69
		c0.32-0.86,1.75-2.61,2.08-2.91c0.59-0.53,0.07-1.01-0.43-0.49c-1.04,1.1-1.62,0.59-2.38-0.14c-0.37-0.42-0.51-4.36-0.25-4.48
		c0,0,1.9-0.28,2.37-0.28c0.35,0,0.32-1.1-0.05-1.1c-0.57,0-2.27,0.02-2.37-0.25c-0.21-0.54,0.34-3.2,0.44-4.4
		c0.08-0.84-0.37-1.1-0.6-0.33C264.96,232.08,263.14,235.46,262.06,236.24 M267.1,226.17c1.1-0.08,2.89,0.58,4.87,0.42
		c2.35-0.17,4.2-3.82,3.19-6.66c-0.95-2.7-3.95-2.22-5.98-2.87c-1.86-0.51-2.63-1.68-0.6-3.01c2.39-1.54,5.35,0.93,5.63,1.45
		c0.44,0.79,0.8,0.77,0.8-0.25c0.07-2.23-0.14-0.97-0.37-3.07c-0.07-0.75-0.62-0.81-0.67-0.09c-0.05,0.73-0.94,0.51-1.61,0.51
		c-0.69-0.02-2.68-0.32-4.39,0.64c-1.1,0.64-3.6,2.6-2.2,4.95c0.82,1.37,5.63,2.49,6.82,3.27c1.21,0.79,1.48,2.81,0.33,3.73
		c-1.43,1.14-5.31,0.18-5.92-0.51c-0.79-0.87-1.08-1.59-1.25-2.6c-0.17-1.04-1.04-0.95-1.04,0c0,0.94,0.23,4.17,0.4,4.92
		c0.16,0.79,0.94,0.53,1.02-0.07C266.21,226.38,266.58,226.22,267.1,226.17 M272.58,229.28c-0.43,0.84-1.12,1.62-2.39,2.21
		c0.77,0.67,1.77,1.53,2.44,1.97c0.76-0.85,1.46-1.63,2.34-2.46C274.1,230.82,273.1,230.39,272.58,229.28 M260.61,228.03
		c0.8-0.65,1.4-1.74,1.72-1.99c0.62-0.51,0.12-1.04-0.41-0.55c-0.41,0.41-1.52-0.54-1.56-0.61c-0.36-0.42-0.88-5.9-0.64-6.03
		c0,0,3.49-0.43,3.94-0.42c0.35,0.03,0.4-1.09,0.02-1.1c-0.56,0-3.23,0.36-3.32,0.1c-0.14-0.58-0.51-2.54,0.37-4.22
		c0.41-0.73-0.01-1.44-0.28-0.69c-0.31,0.76-2.49,4.15-3.91,4.71c-1.16,0.47-1.02,0.74-0.28,0.93c0.59,0.12,1.2,0.82,1.09,0.81
		c-0.11,2.81-0.39,6.29,0.49,7.76C258.39,227.67,259.91,228.63,260.61,228.03 M250.96,233.83c-0.88,0.83-1.58,1.59-2.86,2.6
		c0.6,0.69,1.61,1.55,1.7,2.74c0.08,1.19,0.03,6.73,0.1,8.11c0.95,0,0.78,0.1,2.4,0.04c-0.16-0.94-0.03-8.13-0.03-9.15
		c0.61-0.58,0.69-0.67,1.39-1.19c0.5,0.43,1.67,0.69,1.67,1.46c0,0.77,0.23,4.19-0.04,5.45c-0.34,1.54-0.19,2.64,0.64,4.19
		c0.63-0.7,2.99-2.35,3.5-2.76c0.51-0.44,0.24-0.76-0.41-0.59c-0.7,0.15-0.82,0.29-0.82-0.15c0-0.83-0.33-4.57-0.38-6.96
		c-0.09-2.4-1.26-3.1-1.92-3.44c-0.69,0.77-2.22,1.72-3.14,2.5C252.07,236.18,251.73,235.04,250.96,233.83 M241.68,235.46
		c0.42,1.05,1.72,3.03,2.3,3.38c-1.01,1.02-3.5,2.71-4.2,3.19C238.51,240.43,237.83,237.82,241.68,235.46 M237.31,240.33
		c-0.6,4.5,3.64,7.18,5.67,8.04c0.52-1.03,1.56-2.71,2.58-3.89c0.78-0.9-0.08-1.14-0.78-0.45c-0.94,1.03-3.74,0.05-4.48-1.3
		c1.35-1.02,4.88-3.97,6.42-5.23c-1.02-0.95-2.59-3.32-2.83-4.67C242.52,233.75,238,235.66,237.31,240.33 M236.14,218.71
		c-1.64,2.5-2.53,6.45,0.3,8.76c1.33,1.12,2.44,1.98,5.16,1.5c0.54-1.08,0.78-1.44,1.73-2.69c-1.88,0.31-3.33-0.04-4.69-1.07
		c-2.83-2.19-1.95-5.71-1.12-6.91c1.52-2.26,3.68,0.97,4.08,1.41c0.5-0.6,1.37-1.46,2.22-2.13c-0.84-1.11-1.53-2.14-2.1-2.81
		C239.92,215.41,237.27,217.03,236.14,218.71 M249.24,212.03c-0.22-0.28-0.63-0.72-0.65-1.28c0-0.37,0.05-4.23,0.05-4.72
		c0-0.46-0.91-0.41-0.91,0c-0.04,0.69,0.05,1.86-0.56,2.81c-1.69,2.62-4.93,3.7-7.19,0.48c-0.77-1.07-0.96-2.68-1.06-3.84
		c-0.15-1.54,1.02-3.53,1.09-3.71c2.89-3.79,6.89-0.97,7.22,0.56c0.21,1.02,0.45,2.28,0.45,2.95c-0.03,0.44,0.92,0.39,0.94-0.06
		c0-0.47,0.03-6.29,0.03-6.7c0.01-0.38-0.77-0.5-0.78,0c-0.04,0.93-0.58,1-1.29,0.77c-1.46-0.44-4.7-1.13-6.58-0.05
		c-1.66,0.97-4.19,3.25-4.15,6.13c0.05,4.72,1.84,5.12,3.91,6.39c1.94,1.14,4.62,0.41,7.07-0.31c0.97-0.26,1.09,0.36,1.56,1.04
		C249.16,213.56,249.81,212.89,249.24,212.03 M250.63,225.6c-0.01,0.34,0,0.64,0.01,0.95c-0.34,0.09-0.73,0.17-1.21,0.41
		c-0.65-0.55-3.73-1.56-1.71-3.2c1.24,0.73,1.71,0.16,2.92-0.58C250.64,224.24,250.63,225.23,250.63,225.6 M250.61,222.4
		c-1.78,1.15-2.34,1.11-3.57-0.27c-0.61-0.7-0.55-2.03-0.28-2.53c0.56-0.87,1.52-1.74,1.99-1.74c0.4,0.03,1.83,1.78,1.74,2.53
		C250.56,220.81,250.59,221.59,250.61,222.4 M250.49,215.89c-1.6,0.14-3.9,2.01-4.59,3.62c-0.28,0.64,0.11,2.96,0.41,3.21
		c0.21,0.19,0.38,0.31,0.55,0.45c-1.05,0.98-2.03,1.81-2,3.25c0.04,1.39,1.15,2.63,2.58,3.29c0.77-1.17,1.96-1.89,3.24-2.19
		c0.1,1.11,0.36,1.93,1.09,2.49c0.52-0.59,2.62-2.4,3.03-2.81c0.44-0.42,0.11-0.92-0.41-0.42c-0.3,0.29-1.05-0.14-1.27-0.5
		c0-0.61,0-7.02,0.27-7.31C252.44,217.94,251.54,215.78,250.49,215.89 M262.07,200.24c0.63-0.62-0.04-1.07-0.6-0.53
		c-0.41-0.5-1.48-1.59-2.04-2.26c-0.6,0.5-1.99,1.33-2.76,1.76c-0.61-0.69-1.34-0.69-2.55-1.64c-0.67,0.52-2.16,1.6-2.95,2.57
		c1.41,0.41,2.46,0.49,2.55,1.69c0.06,0.98-0.1,7.03-0.02,8.13c0.75,0.17,1.67,0.09,2.74,0.04c0.08-0.87,0.04-8.45,0.04-9.29
		c0.41-0.22,0.82-0.44,1.02-0.63c0.45,0.34,1.33,1.62,2.03,2.03C260.08,201.72,261.48,200.84,262.07,200.24 M266.32,202.89
		c-0.93-2.98-0.58-4.01,1.27-5.48c0.42,1.03,1.48,1.76,2.07,2.12C268.61,200.55,266.99,202.39,266.32,202.89 M272.34,206.58
		c-3.67,0.92-5.39-2.02-5.75-2.81c1.48-1.52,4.01-4,5.54-5.26c-1.02-0.94-1.44-2.49-3.24-2.62c-1.58,0.05-5.25,1.83-5.89,6.49
		c-0.62,4.48,3.58,6.89,6.91,7.03c1.11,0,2.5-1.43,3.18-1.77C274.57,206.91,274.02,206.19,272.34,206.58 M282.67,201.14
		c-0.21,0.18-0.84,0.69-1.53,1.23c-0.4,0.07-0.81,0.12-1.22,0.07c-1.26-0.18-1.87-1.13-2.44-1.89c-0.6-0.79,0.95-1.45,1.71-1.38
		C279.96,199.28,281.65,200.19,282.67,201.14 M280.03,204.66c0.83,0.38,1.68,0.76,2.6,1.3c1.34,0.75,0.66,2.2-0.79,2.86
		c-1.46,0.68-4.09-1.22-4.5-2C277.88,206.36,278.89,205.56,280.03,204.66 M286.33,199.49c-1.02-0.69-2.13-2.39-4.58-2.5
		c-2.47-0.1-5.25,2.13-6.16,3.54c-1.2,1.86,0.27,3.48,1.84,4.69c-1.01,0.86-2.41,2.18-3.7,3.39c0.53,0.56,3.35,1.9,4.94,1.86
		c2.4-0.05,4.62-1.29,5.98-2.39c2.49-1.97,1.63-4.06-0.91-5.55c-0.24-0.14-0.47-0.19-0.72-0.23
		C284.6,201.05,285.97,199.93,286.33,199.49 M289.38,213.82l-1.5-1.55l-1.51,1.36l0.03,1.87l0.92,0.95h0.94l1.12-1.02V213.82z
		 M288.71,203.31c-0.58-0.03-1.48,1.56,2.01,1.43C291.26,204.72,291.67,203.47,288.71,203.31 M288.67,205.4
		c-0.6-0.04-1.51,1.06,1.99,1.42C291.21,206.88,291.93,205.6,288.67,205.4 M290.94,228.83l1.29-1.39c-1.45-0.28-1.45-0.18-2.23-0.87
		l0.06-6.7L288.8,218l-0.68,0.09l-2.91,2.69c-0.79,0.7-0.08,1.04,0.79,0.26l1.5,0.92l0.06,6.3c0.15,0.76,0.82,1.02,1.74,1.97
		L290.94,228.83z M282.03,240.74c1.08,0.73,1.7,0.63,3.07,0.5c-0.05,0.74-0.11,1.41-0.11,1.72c0,0.33,0.13,0.59,0.23,0.86
		c-0.71,0.26-1.61,0.41-2.3,0.76C282.29,244.03,279.98,242.45,282.03,240.74 M285.16,240.53c-1.18,0.02-2.19-0.34-3.49-1.48
		c-0.24-0.2-0.47-1.67-0.19-2.15c0.57-0.9,0.57-1.18,1.06-1.17c0.38,0,2.76,1.44,2.63,2.21
		C285.27,238.49,285.22,239.52,285.16,240.53 M281.04,239.98c-1.05,1.08-1.83,2.27-1.81,3.77c0.05,1.43,0.53,2.85,1.98,3.5
		c1.28-0.95,2.94-2.1,4.54-2.4c0.78,0.94,1.99,1.57,2.7,2.13c0.5-0.6,2.1-1.89,2.54-2.3c0.42-0.42,0-1.02-0.44-0.46
		c-0.34,0.52-1.46,0.14-1.78-0.39c0-0.6-0.59-7.03-0.33-7.32c-0.92-1.04-2.52-3.37-3.6-3.25c-1.56,0.16-3.9,2.4-4.41,3.13
		c-0.38,0.55,0.12,3.2,0.41,3.45C280.93,239.88,280.97,239.91,281.04,239.98 M276.86,224.69c0.98,2.77,3.28,3.65,4.99,3.79
		c0.51-0.95,1.46-2.39,1.98-3.06c0.77-1.03-0.02-1.64-0.56-0.46c-0.42,0.9-2.64-0.08-3.46-0.86c-1.08-1.01-1.75-3.66-0.89-4.59
		c0.87-0.94,2.13-0.51,3.74-0.55c1.06-0.05,1.29-1.03,1.47-1.54c-0.51-0.24-1.28-0.68-2.29-1.28c-1.04,0.66-2.64,2.03-3.33,2.6
		C277.66,219.46,275.89,221.98,276.86,224.69 M276.23,244.82l1.26-1.39c-1.42-0.26-0.76-0.25-1.51-0.94l-0.04-5.79l-1.84-2.71
		l-0.7,0.1l-2.89,2.71c-0.76,0.67-0.09,0.99,0.8,0.25l1.91,1l0.05,6.12c0.16,0.76,0.83,0.93,1.76,1.89L276.23,244.82z
		 M300.36,278.19c0,0,1.17-1.26,1.16-2.17c-0.01-1.23-1.16-2.12-1.16-2.12c1,0.29,3.36,1.62,4.2,2.17L300.36,278.19z M307.78,275.96
		v-0.17c-2.6-0.38-4.63-2.19-7-3.08c-3.28-1.24-6.76,1.29-6.76,1.69c0,0.88,0.94,1.33,3.59-0.33c-2.08,2.41,0.28,4.36,0.28,4.36
		c-0.86-0.13-2.1-0.42-2.88-0.87c-0.16,0.87,1.03,1.19,1.61,1.57C301.01,280.94,303.9,276.7,307.78,275.96 M337.53,235.63
		c-0.67,0.69-1.85,1.48-2.96,2.71c0.92,0.06,1.68,0.26,2.12,1.14c0.45,0.87,0.07,4.55,0.13,5.96c0.07,1.38,0.92,1.67,2,2.81
		c1.08-0.28,4.12-1.55,5.15-2.25c-0.09,1.13,1.33,2.4,2.18,2.65c0.56-0.61,1.18-0.95,2.01-1.72c-0.81-0.54-0.7-0.62-1.01-1.69
		c-0.23-1.04,0.06-4.96,0.1-6.65c-0.65-0.97-1.7-2.14-2.78-2.95c-0.76,0.69-1.79,1.62-3,2.89c0.91-0.12,2.67,0.24,2.75,0.99
		c0.05,0.97,0.2,3.1,0,4.76c-0.2,1.67-4.68,0.9-4.75-0.22c-0.1-1.16,0.23-4.48,0.26-6.05C339.08,237.04,338.71,236.5,337.53,235.63
		 M339.77,222.69c0.33-1.66,1.49-2.33,2.03-2.83c0.75,0.83,1.51,1.78,2.64,1.78c1.11,0.01,2.26-0.5,2.62-0.96
		c-0.91-0.73-3-2.93-3.41-3.34c-1.05,0.59-5.63,2.96-6.02,5.71c-0.56,4.05,0.73,4.86,2.5,7.08c1,1.26,2.68,1.32,3.44,1.12
		c0.81-0.56,3.82-3.41,4.15-3.77c0.3-0.35-0.14-0.67-0.51-0.32c-0.37,0.35-0.22,0.49-0.72,0.57c-0.5,0.08-2.55,0.42-3.74-0.2
		C341.27,226.77,339.33,224.94,339.77,222.69 M326.99,222.26c0.1,2.73-1.31,5.59-2.86,6.89c2.67-0.69,3.01-2.28,4.48-4.16
		c0.81,1.19,2.3,2.63,3.4,3.26c0.78-0.51,2.96-2.96,3.44-3.47c-1.57-0.42-4.62-2.03-5.37-3.73c-0.6-1.26-0.46-1.85,0.14-2.85
		c0.53,0.7,4.23,2.4,5.89-0.43c-1.82-0.66-3.46-1.86-4.01-2.83c-0.49,0.41-2.12,2.18-3.03,2.74c-0.22-0.97-1.71-2.02-2.92-2.24
		c-0.4,0.42-3.24,2.6-4.55,3.24c-0.4,0.19-0.25,1.06,0.32,0.84c0.53-0.23,1.41-0.9,2.43-1.38
		C325.53,218.59,326.87,219.78,326.99,222.26 M326.46,235.36c-1.09,0.54,1.46,1.55,1.29,1.5c-0.05,2.89-0.63,7.61,0.37,9.11
		c0.6,0.91,2,1.51,2.94,1.15c0.9-0.36,2.04-2.15,2.39-2.44c0.66-0.5,0.09-1.03-0.46-0.51c-0.55,0.51-2.04,0.15-2.24-0.37
		c-0.16-0.54-0.34-6.84-0.08-6.97c0,0,1.79-0.04,2.27-0.02c0.38,0,0.41-1.14,0.04-1.14c-0.66-0.02-2.11-0.14-2.19-0.4
		c-0.22-0.59,0.05-2.51,0.43-3.29c0.38-0.79-0.36-1.14-0.64-0.37C330.28,232.43,328.38,234.42,326.46,235.36 M316.14,237.25
		c0.62-0.93,1-1.12,1.49-1.12c0.45,0.03,2.16,1.21,2.07,2c0.09,0.51,0.11,1.58,0.1,2.68c-1.28,0.16-2.18,0.3-3.62-0.91
		C315.91,239.69,315.84,237.74,316.14,237.25 M316.91,241.48c0.94,0.52,1.41,0.2,2.88,0.05c-0.01,0.92-0.04,1.74-0.04,2.19
		c-0.64,0.46-1.43,0.86-2.34,1.31C316.68,244.43,315.63,243.92,316.91,241.48 M315.73,240.62c-0.79,0.74-2.19,2.69-2.17,4.11
		c0.02,1.46,0.74,2.87,1.58,3.66c1.45-1.01,2.35-2.4,4.75-3.33c0.3,1.12,1.1,1.3,2.03,2c0.57-0.62,2.6-3.13,3.05-3.57
		c0.46-0.43,0.2-0.87-0.45-0.43c-0.64,0.43-1.08,0.17-2.16-0.99c0.03-0.63-0.08-5.75,0.17-6.04c-0.98-1.06-1.89-2.5-3.04-2.39
		c-1.69,0.14-3.83,3.07-4.36,3.84c-0.42,0.55,0.02,2.65,0.34,2.92C315.58,240.52,315.64,240.53,315.73,240.62 M305.9,230.88
		c0.06,1.38,0.55,13.3,0.41,14.96c-0.09,0.95,1.17,1.95,2.33,2.74c0.56-0.68,1.79-2.46,2.81-3.21c0.59-0.5,0.18-0.81-0.28-0.64
		c-0.91,0.43-1.84,0.1-1.92-0.96s-0.08-11.32,0-12.79C308.54,230.99,306.56,230.94,305.9,230.88 M305.04,222.23
		c0.06,4.87,2,5.29,4.21,6.56c2.1,1.19,5.63,0.95,8.26,0.25c1.01-0.29,1.55-0.35,1.52,0.52c0,0.54,0.76,0.42,0.76,0.02
		c0-0.4,0.04-4.49,0.04-4.94c0-0.51-0.74-0.44-0.74,0c0,0.69,0,0.89-0.67,1.86c-1.82,2.7-6.38,2.59-8.81-0.71
		c-0.84-1.12-1.6-2.62-0.63-2.89c0.95-0.3,3.89,0.31,5.83,0.47c1.16,0.08,3.83,0.35,4.17,0.54c0.3,0.22,0.75,0.5,0.75-0.08
		c0.02-0.57,0.02-2.45,0.02-3.03c0-0.57-0.43-0.29-0.77-0.1c-0.33,0.24-3.18,0.71-4.32,0.91c-1.16,0.21-4.69,0.5-5.62,0.18
		c-0.96-0.31-0.64-2.23,0.21-3.32c2.46-3.27,7.45-3.04,9.25-0.33c0.62,0.95,0.62,1.17,0.62,1.88c0,0.43,0.72,0.48,0.72,0
		c0.04-0.46,0.05-5.39,0.05-5.79c0-0.38-0.72-0.52-0.72,0c0,0.36-0.8,0.57-1.58,0.36c-1.54-0.48-6.05,0.21-8.07,1.31
		C307.74,216.93,305.01,219.28,305.04,222.23 M324.21,193.9c-0.91-0.11-3.95,0.15-5.04,0.32c-1.1,0.17-1.1,0.7-0.19,0.81
		c0.91,0.09,1.09,0.28,1.57,1.5c0.43,1.23-1.75,6.8-2.29,8.12c-0.64-0.96-2.96-6.06-2.96-6.75c0-0.5,1.03-0.99,1.47-1.11
		c0.86-0.27,0.84-0.85,0.19-0.98c-1.81-0.26-8.2-0.82-9.34-0.96c-0.81-0.07-1.19,0.87-0.2,0.87c1.03,0.03,2.09-0.27,3.21,1.36
		c1.29,1.86,5.34,10.56,6.31,14.23c0.48-0.77,4.51-12.49,4.75-13.73c0.29-1.21,1.15-2.4,2.34-2.75
		C325.24,194.51,325.13,193.99,324.21,193.9 M329.69,196.03l1.21-1.04v-1.67l-1.62-1.57l-1.61,1.36l0.04,1.93l1,0.99H329.69z
		 M331.54,211.31l2.13-2.77c-1.55-0.27-2.19-0.55-3.26-1.78l0.04-6.89l-2.18-2.18l-0.74,0.09l-3.43,3c-0.34,0.52,0.57,0.52,1.03-0.1
		l2.48,1.43l0.1,6.66c0.2,0.8,0.86,1.57,1.84,2.55H331.54z M345.73,199.5c-0.65,0-5.02,0.09-5.13-0.16
		c-0.32-0.93-0.4-2.07,0.35-3.65c0.37-0.79-0.35-1.12-0.63-0.33c-0.28,0.78-2.46,3.8-4.74,4.77c-1.16,0.46,1.43,1.53,1.24,1.48
		c-0.01,2.91,0.41,7.27,1.03,9.03c0.38,1.04,1.57,2.73,2.38,2.22c0.52-0.33,1.67-2.6,2.03-2.88c0.63-0.52,0.01-1.39-0.51-0.87
		c-0.59,0.51-1.09-0.28-1.24-0.82c-0.2-0.52-0.74-6.91-0.46-7.04c0,0,5.17-0.63,5.68-0.63C346.08,200.64,346.1,199.5,345.73,199.5
		 M353.67,211.93c-0.71,0.04-1.33,0.23-2.24,0.66c-0.74-0.6-2.67-2.93-1.25-5.54c-0.19-0.12-0.4-0.22-0.59-0.35
		c1.31,0.74,2.84,1.38,4.05,1.77c-0.01,1.04-0.04,1.97-0.04,2.31C353.6,211.23,353.63,211.58,353.67,211.93 M353.65,207.83
		c-1.35-0.48-4.04-1.74-5.01-2.55c-0.27-0.21-0.28-0.32,0.03-0.83c0.62-0.92,1.33-1.72,1.82-1.69c0.42,0,3.15,1.46,3.06,2.23
		C353.64,205.54,353.65,206.69,353.65,207.83 M355.31,214.81l2.76-3.02c0,0-1.23-0.96-1.95-1.86c0-0.63,0-6.68,0.26-7.01
		c-2.08-1.85-3.59-2.08-4.49-1.97c-1.69,0.25-3.41,2.41-3.95,3.13c-0.4,0.57-0.29,1.29,0,1.56c0.33,0.27,0.77,0.55,1.23,0.82
		c-0.08-0.05-0.16-0.09-0.23-0.13c-0.79,0.74-1.94,2.88-1.9,4.32c0.01,1.45,1.32,3.56,2.21,4.36c0.98-0.75,2.41-2.01,4.53-2.43
		C354.02,213.61,354.5,214.23,355.31,214.81 M355.41,230.8c-0.71-0.34-3.31-2.35-3.9-3.88c-0.78-2.07-0.78-4.36,1.42-5.7
		c1.72,0.64,3.72,2.33,3.9,3.88C357.08,227.1,356.5,229.49,355.41,230.8 M357.75,229.98c0.75-1.36,1.86-3.58,1.79-5.25
		c-0.1-2.07-1.37-5.13-4.4-6.14c-3.85,1.36-6.23,4.4-6.33,7.99c-0.07,2.09,1.71,6.42,5.4,6.45
		C355.35,231.93,356.55,230.77,357.75,229.98 M361.38,240.43c-0.46-0.54-1.69-1.55-2.79-2.33c-0.64,0.52-1.93,1.46-2.77,1.9
		c-0.62-0.7-1.43-1.66-2.69-2.63c-0.75,0.51-2.93,2.5-3.84,3.02c1.32,0.04,3.29,0.47,3.37,1.71c0.04,1-0.07,7.22,0,8.35
		c0.81,0.17,1.76,0.09,2.95,0.02c0.06-0.88,0.04-8.05,0.06-8.93c0.4-0.22,0.86-0.43,1.08-0.64c0.46,0.34,1.84,1.93,2.64,2.36
		c0.55-0.42,1.99-1.68,2.63-2.27C362.67,240.32,361.96,239.9,361.38,240.43 M361.38,227.28c0.49,0.15,1.4,0.28,2.32,0.35
		c0.59,0.07,0.4-0.9-0.05-1.09c-0.45-0.16-1.45-0.35-2.07-0.37C360.9,226.18,360.59,227.05,361.38,227.28 M363.72,224.4
		c-0.48-0.19-1.48-0.37-2.12-0.37c-0.64,0-0.97,0.9-0.19,1.12c0.51,0.13,1.44,0.3,2.34,0.34
		C364.37,225.55,364.17,224.58,363.72,224.4 M379.45,377.01c-1.23,6.02-3.31,11.59-6.92,16.78c-2.53,3.67-3.57-3.47-1.38-10.39
		C374.24,382.16,377.34,379.76,379.45,377.01 M376,378.22c-8.08,7.99-20.21,5.1-29.77,9.37c-8.66,3.15-14.93,11.16-24.01,13.18
		c-2.67,0.86-3.11,2.2-1.4,2.15c0.99-0.02,6.53,5.75,15.38,1.29c2.96-1.48,12.15-6.6,13.7-6.89c-4.97,4.73-7.47,8.96-11.91,11.46
		c-2.72,1.52-13.8,5.49-24.84,3.35c-4.89-0.96-8.66,3.56-7.42,3.46c2.63-0.7,5.56-0.34,7.33,1.97c3.21,2.51,7.85,5.65,11.84,0.98
		c1.33-1.55,7.68-4.84,13.64,1.2c-6.34-0.33-5.72,11.08-17.73,9.74c-4.45-0.04-14.27-10.21-17.07-7.06
		c-4.97,5.58,10.67,10.88,3.9,17.9c-6.12,6.34-13.42-5.05-13.42-5.05c3.81,1.6,10.85,2.63,7.75-3.58c-1.22-2.46-3.57-4.68-3.57-9.23
		c-0.54-2.27-14.53,18.02-23.79,8.85c-3.63-3.6-11-11.49-17.67-14.51c17.67-1.5,20.36,5.57,21.21,6.71
		c5.65,7.63,10.88-0.12,12.08-1.48c1.84-2.1,4.44-4.98,3.52-5.42c-6.85-3.24-14.69-3.94-20.54-1.25c12.53-17.22,22.27-1.1,22.27-1.1
		c1.37,0.86-0.35-10.21-12.74-10.82c-7.74-0.39-14.55,6.58-19.88,6.57c-4.34,0-17.49-8.89-20.58-16.78
		c7.65,5.73,17.41,9.01,23.5,5.38c11.43-6.81,25.84,3.47,26.53,2.24c-3.2-2.5-10.48-12.25-30.11-6.7
		c-7.62,4.38-10.83-3.24-15.51-3.37c7.96-7.06,13.48-3.46,16.26-3.26c0.66,0-3.32-3.26-6.11-3.56c-21.7-2.26-35.45-8.23-35.45-8.23
		c-0.12,0,1.81-4.38,11.14-1.22c0,0-8.36-5.12-8.29-11.7c0.27-4.05,2.24-8.4-0.87-11.79c12.6-0.52,3.65,17.05,12.49,21.58
		c0.19,0.07-2.6-4.2,1.34-7.51c1.83,5.16,6.32,7.82,9.49,8.65c0.74-0.4,1.65-1.98,1.65-1.98c-3.32-5.51-3.76-11.92-2.87-19.26
		l0.13-0.08c0.72,0.04,1.93,2.53,2.78,4.36c1.83,3.95,1.79,9.64,5.45,14.32c2.03,2.58,3.28,5.16,5.1,6.41
		c0.79-1.83,0.21-4.97,0.09-5.8c-0.42-2.99-2.29-8.21,2.81-12.83c2.38,6.89,5.63,4.89,6.07,8.19c0.6,4.63,0.41,3.89-0.07,7.45
		c0.25,4.9,4.69,6.27,8.64,9.39c8.91,4.85,14.82,7.48,18.69,13.68c1.9-10.47-26.37-12.56-22.73-32.76
		c-0.38-8.08,1.01-8.75-4.71-13.68c11.34,0.33,17.52,18.95,18.14,22.34c1.13,6.24,4.92,6.57,10.13,14.71
		c0.75,0.27-9.3-21.69,2.69-40.49c0,0,4.04,9.77,2.13,16.16c-1.15,3.86-0.08,8.13,0.13,10.55c0.22,2.46-0.49-8.91,8.07-14.8
		c0.53,4.3,4.66,10.97,0.75,18.12c-4.75,8.69-5.1,5.56-5.17,16.26c0.43-0.18,1.66-7.36,4.92-11.46c6.9-8.62,1.98-13.25,8.71-20.72
		c0.53,3.74,1.49,2.26,1.88,5.59c0.91,7.47-6.89,15.64-5.18,15.39c1.99-0.29,5.18-2.01,6.25-7.68c0,0,2.88,5.17,0.24,6.89
		c-4.76,3.12-5.75,6.48-5,10.26c3.81-4.55,9.03-9.6,8.12-16.09c0.43-3.92,4.68-5.51,5.52-14.6c0.14-1.51,1.65-3.34,3.15-4.15
		c-0.66,5.1,3.31,10.39-1.21,16.65c1.03,0.54,4.85-4.88,10.43-2.9c-11.2,2.02-7.93,14.15-16.52,19.76c-2.59,1.7-2.14,3.6-2.92,3.82
		c7.66-0.44,13.57-9.56,14.59-10.26c7.7-5.21,9.39-6,12.47-14.45c1.21-3.22,0.33-4.63,4.6-8.96c1.87,4.27-0.85,13.11-1.5,15.02
		c-1.38,4.08-6.22,7.6-5.19,7.6c20.65-9.11,20.38-15.23,25.32-21.75c1.48-2.5,8.83-6.82,11.58-7.23c-0.67,1.36-3.53,3.65-3.67,6.12
		c-0.25,4.56-1.72,7.35-4.02,11.01c1.28,1.59,3.74-3,6.26-0.69C380.07,372.32,378.59,376.04,376,378.22 M357.09,371.74
		c0.6-2.14,0.6-3.62,0.87-5.5c0.12-0.81,0.14-0.72,0.17-1.4c0.02-0.22,5.84,4.84,6.17,5.05c-1.46,1.83-2.71,2.48-4.11,3.79
		C359.22,372.82,357.04,371.94,357.09,371.74 M358.86,374.9c-2.69,2.37-4.45,3.2-3.86,2.03c0.66-1.31,1.14-2.41,1.5-3.39
		C356.62,373.21,358.86,374.9,358.86,374.9 M385.25,352c-2.46,0.64-8.96,3.24-10.52,5.78c0.84-14.04-3.71-27.81-5.15-31.14
		c-2.81-6.49,1.26,15.09,1.53,20.06c0.01,0.23-23.29-29.94-9.22-6.71c3.65,6.02,9.34,9.95,9.35,10.05c0.09,4.19-0.19,7.27-0.98,9.51
		c-1.44,1.15-31.73-40.31-14.99-11.6c2.08,3.56,14.22,14.33,14.12,14.55c-0.77,1.64-2.13,4.01-4.01,5.77
		c-0.33-0.31-6.99-5.23-7.03-5.53c-0.5-3.21-0.53-6.22-4.48-3.96c0,0-14.93-17.37-8.01-5.2c3.01,5.32,5,5.92,5.81,6.86
		c0,0-2.32,3.15-3.05,6.48c-0.31,1.34-12.95-14.01-7.99-4.37c1.59,3.09,7.37,6.46,7.31,6.68c-0.59,2.01-1.19,3.96-1.82,5.22
		c-0.8,1.6-11.9,10.44-11.88,10.44c0-0.01,2.17-7.01,6.89-10.44c2.69-1.98,2.7-1.54,4.48-2.66c-0.03-1.03-1.03-2.73-2.33-3.18
		c-1.62-0.57-6.87,0.38-6.87,0.38c0.5-2.63-1.81-8.29-1.78-14.53c-1.97,0.2-5.44,3.26-6.29,4.99c-0.61,10.33-2.85,7.24-4.95,14.66
		c-2.28-3.12,0.16-7.6-2.08-10.51c-3.07-4.01-3.53-6.71-4-11.65c0.72-0.39,3.86-3.87,1-11.14c-0.46-11.44,4.64-15.82-4.5-23.81
		c0.78-0.25,1.33-5.98,1.33-5.99c6.73,3.59,5.4-4.16,8.02-5.69c4.17-2.41,3.41-4.92,1.55-8.03c11.9,3.38-0.55,11.52,4.85,11.7
		c3.91,0.12,6.53-0.87,8.22-3.5c1.82-2.77-0.31-4.48,4.74-8.98c0.5-0.45,1.84-3.46-2.16-4.28c-0.88-0.19,0.01-3.61,0.01-3.61
		c-3.21,2.71-4.22,6.54-9.37,4.12c-2.63-1.24-4.35-0.02-5.43,0.5c0,0-0.55-2.16,1.64-2.88c5.64-1.9,7.03-4.15,6.73-5.38
		c-0.76-2.93-0.99,0-0.83-3.1c0.07-1.22,1.5-2.89,2.68-4.32c3.83-4.62,6.53-2.89,7.52-2.48c2.22-1.72,2.61-1.6,4.68-2.42
		c3.54-1.39,11.23,0.92,15.52,2.91c2.08,0.95,4.57,1.51,6.99,0.97c-0.02,1.25-0.9,1.93-1.77,2.18c-1.34,0.42-2.93,0-2.83,0.98
		c0.06,0.58,1.9,0.67,3.05,0.98c6.36,1.74,14.59,7.44,9.18,6.24c-0.64-0.14,3.9,3.39,7.33,7.99l12.13,11.78
		c-0.56,0.67-4.81,0.07-18.28-12.56c-1.91,1.71,16.38,15.5,23.93,30.14c-0.65,0.45-10.07-2.98-13.46-6.48
		c-5.22-5.41-11.24-19.16-13.71-17.15c-0.29,0.12,9.94,16.06,15,25.51c2.56,4.79,4.66,11.65,4.82,16.81
		c0.82,25.48-3.01,23.52-3.01,23.52c-5.97-20.07-8.76-43.38-17.47-54.14C371.91,308.05,384.7,331.17,385.25,352 M394.65,215.52
		c-0.06-0.39-0.14-0.99-0.25-1.84c-0.19-1.31-3.96-2.08-6.63-0.91c-3.73,1.63-13.1,6.98-16.51,5.96v-13.17
		c8.42,3.65,11.7,0.36,14.42,0.36c8.32,0,8.73,7.76,8.73,7.76C394.52,214.53,394.6,215.13,394.65,215.52 M386.01,233.54
		c7.31-1.07,8.41,7.56,8.41,7.56h-0.02c-1.8-1.43-5.42-2.07-7.86-0.5c-8.17,5.25-15.52,5.31-15.52,5.31v-13.17
		C371.02,232.75,372.57,235.51,386.01,233.54 M368.55,260.3c-13.26,0.9-40.76-6.64-47.74-6.64c-14.43,0-21.41,5.63-21.41,5.63
		s0.02-65.48,0-67.84c0,0,18.95-8.89,32.75-3.8c16.89,6.24,36.4,3.47,36.4,3.47V260.3z M313.64,270.52c0.43,2.62-2,3.27-1.99,3.27
		c3.78,0.89,5.59-1.37,6.33-2.79c1.46,6.04-4.64,6.38-6.53,6.74c-0.01,0,3.08,0.89,3.24,2.9c0.41,5.11,3.69,4.67,4.4,4.27
		c-0.11,0.62-1.13,3.7-4.82,0.92c-0.63,0.62,1.01,1.57,1.33,4.11c0.41,3.21,0.31,6.18,4.01,8.13c-2.27,1.8-4.94-2.89-5.17-2.33
		c-0.26,0.63,3.15,2.35-0.61,11.22c-1.71-0.99-0.75-0.8-2.74-3.16c-1.53-1.27-2.13-1.56-0.85,0.54c2.22,2.77,2.74,9.11,1.98,10.82
		c-1.83-0.79-1.36-2.26-3.52-4.24c-0.2,0.85,0.66,5.05,2.89,7.06c3.86,3.48,5.22,7.68,5.29,8.51c0.3,3.15-0.69,7.32-1.07,11.39
		c-1.85-0.28-3.41-5.51-3.86-5.22c-0.54,0.36,0.23,5.14,3.71,8.39c1.69,4.93,1.01,7.58,0.56,7.75c-0.59,0.26-2.46-5.04-3.49-4.12
		c4.95,12.63,1.49,17.02,0.18,20.91c-1.03-3.98-1.55-6.97-2.83-11.48c-2.71,2.12-3.36,5.27-6.66,8.14c0-5.15-2.98-17.57-5.33-20.47
		c-0.11-0.14-4.27,11.14-6.16,16.15c-2.46,6.51-2.84,14.63,0,20.96c-6.12-8.71-6.79-24.93-1.49-27.12c0.45-1.16-0.32-4.98-1.5-4.51
		c-0.34,1.87-0.11,3.47-1.66,5.29c-4.06-1.19-2.21-6.13-1.84-7.78c5.26-6.31,1.97-7.77,1.73-7.6c-0.57,1.45-1.06,3.22-2.68,3.88
		c-3.38-5.8-1.21-14.91,5.2-21.71c0.27-2.55-2.87,1.88-4.91,1.74c-0.54-4.89,1.24-13.39,10.29-13.69c-1.73-0.5-2.65-0.82-3.07-2.27
		c2.73-0.41,11.32-1.06,9.91-7.83c-0.82,0.82-1.08,2.03-3.31,3.39c-1.5,0.92-3.14,0.99-4-0.33c3.99-1.32,2.68-6.16-2.53-4.73
		c-1.59,0.43-3.92-1.23-4.04-3.08c1.16,1.16,3.5,0.3,4.86-0.58c5.85-3.8,9.42,1.71,10.21,2.89c0.24,0,2.63-5.5-5.68-6.98
		c-0.69-1.93-2.59-5.36-8.23-4.92c-1.86-6.56-7.48-3.33-7.29-0.36c-5.97-4.4,0.1-9.95,2.52-10.8c1.67,0.14,1.3,5.43,4.24,4.54
		c0.71-0.21-2.28-3.65-1.14-5.21c2.7-1.54,2.64,1.97,3.96,0.67c0.66-2.3,3.3-3.58,5.47-3.83
		C303.04,267.11,307.78,273.8,313.64,270.52 M296.22,259.23c0,0-8.98-4.88-19.53-5.58c-10.2-0.68-30.8,7.47-46.62,6.39v-69.52
		c0,0,18.04,2.39,25.45-0.46c25.2-9.72,40.7,1.14,40.7,1.14V259.23z M226.86,244.68h-8.58v-8.44h8.58V244.68z M226.86,215.26h-8.58
		v-8.45h8.58V215.26z M208.17,247.12c-10.08,0-10.08-14.76,0-14.76C217.86,232.37,217.92,247.12,208.17,247.12 M208.17,217.63
		c-9.85,0-9.64-14.77,0-14.77C217.86,202.86,217.86,217.63,208.17,217.63 M273.07,286.59c-1.79-3.07,2.15-6,2.15-6
		c-0.12,8.63,10.92,2.71,16.68,5.45c1.38,0.64,2.35,1.86,2.92,3.14C288.63,284.89,277.18,293.6,273.07,286.59 M243.25,359.69
		c0.05,2.96-0.16,5.14,0.7,8.15c1.4,4.54,0.69,3.14-1.21,1.59c-1.51-1.69-2.92-3.07-3.65-5.04
		C238.9,362.99,240.03,362.9,243.25,359.69 M221.03,298.67l-0.17-0.17c-0.2,0-14.34,8.92-23.52,4.64
		c6.85-3.79,30.54-18.84,37.03-23.12c3.06,0.66,4.29-0.44,5.27-1.12c-2.48,0.15-10.69,1.44-6.54-5.91
		c1.59,6.59,13.11,0.53,17.25-0.43c11.52-2.65,11.44,9.67,10.45,14.75c-0.36,1.9,3.53,3.24,5.44,2.97c-3.3,8.13-8.94,0.47-9.61,3.57
		c-0.27,1.26-4.04,2.24-4.03,5.37c0.02,4.27,1.69,1.94,1.85,5.25c0.17,3.2-1.37,0.71-1.02,4.18c0.55,5.51,9.67-0.73,13.43,0.76
		c1.88,0.74,3.13,2.43,4.96,2.09c0.54-0.44,0.3-2.52,0.21-3.26c-0.19-1.75-3.43-1.95-4.93-4.34c-1.32-2.08,1.48-8.35,3-10.19
		c2.18,10.34,11.87,7.1,13.32,17.98c0.92,3.07-3.33,6.5,0.11,11.5c-2.56,2.49-5.63,14.26-0.28,19.79c-0.91,2.51-2.1,8.29,2.67,11.67
		c-1.6,3.41-1.24,7.58,0.11,11.83c-2.97,0-2.38-16.64-20.16-17.18c-0.4-0.12-0.5,1.89,0.02,2.8c2.13,3.74,4.99,3.52,4.37,12.34
		c-0.21,3.01-1.98-0.53-2.92-1.37c-2.15-1.9-3.82-2.15-4.75-8.35c-7.23,5.67-6.52,12.52-6.06,16.01c0,0.01-1.59-4.35-3.42-8.81
		c-0.1-0.24,7.34-9.18,8.52-11.31c15-27-9.68,8.73-9.74,8.61c-1.33-3.08-2.49-5.74-3.26-6.57c0.19-0.38,4.3-4.97,6.17-8.85
		c11.6-24.15-6.9,8.05-7.56,7.45c-1.39-1.25-2.55-2.82-3.43-2.27c-0.21,3.72-1.1,3.2-0.84,7c-1.93,2.58-6.08,6.65-8.98,8.65
		c0,0-0.72-6.71-0.53-6.94c1.46-1.78,7.16-7.89,8.33-9.72c19.01-29.86-8.91,7.2-8.95,6.88c-0.2-1.19-1.73-3.13-3.36-4.79
		c0,0,6.17-8.39,7.68-11.52c11.57-23.78-9.3,10.54-9.53,10.42c-0.5-0.26-0.55-0.25-1.14-0.46c-0.58-0.19,0.64-6.85,1.45-10.85
		c1.57-7.92-2.63-1.53-3.78,11.02c-1.07,0.17-3.68,0.44-4.66,1.33c0.63,3.34,1.43,0.77,2.83,3.99c1.68,3.86-2.34,10.18,1.16,14.82
		c1.35,1.79,1.44,1.48,1.17,2.65c-2.15-0.16-3.46-0.2-4.83,1.67c-2.64-12.02-2.56-17.83-1.95-30.05c0.27-5.55,2.1-13.96,1.27-14.12
		c-0.79-0.15-13.39,32.29-16.43,38.64c-5.31-1.79,3.31-29.87,14.26-43.38c1.03-4.3-5.74,4.36-9.79,7.8
		c-3.71,3.16-8.41,7.29-13.52,5.88c6.56-6.95,21.63-19.95,23.31-23.19c1.4-2.79-10.28,8.67-22.62,4.4
		C202.37,314.82,221,305.3,221.03,298.67 M220.9,377.66c2.06,1.4,4.49,2.01,6.72,2.96c2.76,7.21,0.07,14.3-1.48,11.36
		C223.42,386.83,222.35,382.55,220.9,377.66 M411.07,337.55l-0.01-160.7c-129.09-12.45-226.54,0-226.54,0v160.72
		c10.29,108.94,112.32,121.73,113.28,121.55C316.04,455.84,401.57,438.63,411.07,337.55"/>
</g>
<g id="letters">
	<path class="st2" d="M231.92,108.13c-1.24,0.43-2.57,0.42-3.62,0.07c-4.12-1.24-8.02-3.79-14.06-8.01
		c-0.38-0.26-0.79-0.6-0.68-0.97c1.84-1.85,4.18-5.61,2.36-9.84c-1.34-3.12-3.77-4.46-6.38-4.65c-2.53-0.23-5.26,0.68-8.02,1.86
		c-4.37,1.88-7.38,3.33-9.79,4.63c-0.27,0.33,0.02,1.04,0.43,1.14l1.51-0.45c1.92-0.56,2.39,0.13,4.21,4.38l6.88,16
		c2.01,4.68,2.17,5.3-0.28,6.72l-1.06,0.61c-0.14,0.43,0.25,1.06,0.57,1.09c2.06-1,3.63-1.74,5.51-2.54
		c1.77-0.76,3.31-1.36,5.36-2.14c0.22-0.25-0.02-1.05-0.38-1.16l-1,0.27c-2.74,0.75-3.05,0.25-5.07-4.43l-2.41-5.61
		c-0.41-0.93-0.34-1.02,1.67-1.88c1.79-0.77,2.69-0.64,3.78,0.06c2.24,1.41,5.39,3.7,7.27,4.85c5.1,3.16,7.85,3.28,11.64,1.65
		c0.84-0.36,1.52-0.75,1.86-1.05C232.38,108.45,232.18,108.12,231.92,108.13z M212.31,98.28c-0.87,1.53-2.49,2.45-4.09,3.14
		c-2.28,0.97-2.98,1.17-3.18,1.1c0,0-0.42-0.62-0.76-1.42l-4.48-10.44c-0.54-1.25-0.49-1.48,2.28-2.67
		c4.95-2.13,8.58,0.28,10.09,3.8C213.47,94.82,213.11,96.83,212.31,98.28z M192.52,119.6c0.32,2.81,0.14,4.95-0.32,5.83
		c-0.61,1.02-1.69,1.95-4.82,3.99c-3.58,2.33-4.73,2.43-5.53,2.26c-1.11-0.28-2.12-1.58-3.53-3.74l-3.72-5.75
		c-0.69-1.06-0.59-1.18,0.63-1.96l2.36-1.53c1.59-1.04,2.59-1.63,3.26-1.83c0.95-0.33,1.63,0.1,2.28,0.73l1.39,1.35
		c0.36,0.11,1.05-0.34,1.03-0.72c-0.58-0.9-1.73-2.34-2.69-3.81c-1-1.55-1.87-3.24-2.51-4.21c-0.35-0.19-1.04,0.26-1.09,0.64
		l0.76,1.88c0.46,1.15,0.33,1.58-0.05,2.05c-0.38,0.49-1.59,1.38-3.31,2.5l-2.36,1.53c-1.22,0.79-1.35,0.87-2.08-0.27l-5.29-8.15
		c-1.01-1.55-1.06-1.63,0.16-2.43l2.93-1.9c1.8-1.16,3.13-1.97,4.11-2.32c2.46-0.84,3.75,0.35,5.61,1.86
		c0.36,0.11,0.95-0.39,0.96-0.74c-1.33-1.69-3.47-4.46-4.16-5c-0.41,0.45-2.81,2.01-5.42,3.69l-7.66,4.97
		c-1.65,1.08-3.07,1.93-4.88,3c-0.16,0.28,0.23,1.06,0.58,1.06l0.71-0.34c2.59-1.28,3.07-0.71,5.81,3.52l9.52,14.65
		c2.76,4.28,2.96,5.02,0.77,6.73l-1.27,1c-0.08,0.4,0.42,1,0.75,0.97c2.35-1.64,3.7-2.58,5.46-3.72l3.66-2.38
		c3.63-2.34,7.28-4.66,11-6.96c-0.17-1.43-1.19-5.22-1.84-6.84C193.33,118.96,192.68,119.21,192.52,119.6z M252.93,498.29
		c-3.15-0.75-5.62-1.39-7.54-1.97c-0.58,0.09-0.85,1.25-0.52,1.72l1.59,0.6c2.14,0.79,2.43,1.69,1.48,5.63l-2.13,8.95
		c-0.95,3.94-1.59,4.57-3.86,4.31l-2.22-0.26c-0.5,0.27-0.78,1.43-0.31,1.78c1.98,0.36,4.46,0.89,8.14,1.76
		c3.63,0.86,6.24,1.56,8.16,2.13c0.58-0.09,0.86-1.26,0.52-1.72l-2.09-0.78c-2.14-0.79-2.45-1.64-1.5-5.59l2.14-8.94
		c0.94-3.94,1.6-4.62,3.87-4.34l1.68,0.16c0.5-0.26,0.78-1.41,0.31-1.75C258.84,499.64,256.19,499.07,252.93,498.29z M512,250.65
		c-6.21,0.89-10.14,4.5-12.24,8.72c-1.84,3.85-2.11,8.1-1.48,12.43c0.44,3.07,1.66,6.43,2.19,7.43c0.26,0.49,0.54,1.05,0.71,1.62
		c1.02,0.58,4.37,1.38,6.93,1.35c0.3-0.24,0.29-0.98,0-1.28c-2.99-0.69-7.42-2.84-8.32-9.05c-1.13-7.88,3.52-15.07,13.61-16.52
		c9.94-1.44,15.5,4.14,16.56,11.48c1,6.97-2.43,9.67-5.59,10.86c-0.24,0.38-0.08,1.08,0.29,1.28c2.87-0.81,5.86-1.48,6.95-1.69
		c-0.11-0.43-0.06-0.79,0-1.38c0.3-2.34,0.3-6.08-0.07-8.67c-0.72-4.99-2.71-9.27-5.95-12.38
		C522.23,251.62,517.32,249.87,512,250.65z M69.81,254.64l0.41-1.14c0.98-2.65,1.81-2.53,6.68-1.19l11.04,3.06
		c5.57,1.53,9.31,1.31,12.05-0.6c2.59-1.75,4.09-4.81,4.98-8.03c0.96-3.47,0.71-7.27-0.94-9.88c-2.08-3.4-6.2-5.24-10.28-6.36
		l-5.29-1.46c-2.61-0.72-7.99-2.2-9.36-3.29c-0.53-0.45-0.71-1.45-0.48-2.65l0.22-1.15c-0.22-0.31-0.81-0.53-1.14-0.21
		c-0.37,1.71-0.68,2.98-1.23,4.94c-0.51,1.82-1.02,3.55-1.61,5.29c0.11,0.33,0.69,0.6,1.09,0.4l0.41-1.14
		c0.42-1.14,0.98-1.9,1.64-2.08c1.63-0.41,7.03,0.99,9.93,1.78l5.37,1.5c7.12,1.96,11.75,6.01,9.86,12.8
		c-1.97,7.16-7.57,8.13-15.12,6.04l-10.1-2.78c-4.86-1.35-5.64-1.66-5.12-4.44l0.22-1.15c-0.11-0.33-0.92-0.45-1.14-0.21
		c-0.54,2.31-0.93,3.87-1.46,5.79c-0.52,1.86-1,3.45-1.74,5.76C68.78,254.56,69.54,254.88,69.81,254.64z M247.57,103.46
		c-5.47,1.33-8.53-2.82-9.82-5.05c-0.26-0.24-0.94,0.02-1.1,0.42c0.64,2.19,2.06,5.39,2.89,6.29c1.01,0.3,3.8,0.91,7.76-0.05
		c6.14-1.5,9.19-5.98,7.92-11.17c-1.09-4.48-4.67-6.51-8.1-7.61l-4.34-1.45c-2.01-0.66-4.76-2.09-5.43-4.82
		c-0.52-2.17-0.29-5.48,4.34-6.6c4.53-1.1,6.55,1.65,7.71,3.77c0.3,0.23,1.02-0.09,1.14-0.43c-0.47-1.98-1.55-4.51-2.25-5.54
		c-0.37,0.1-1.06,0.16-1.71,0.12c-1.31-0.03-3.08,0.1-4.54,0.46c-6.13,1.49-8.74,5.97-7.65,10.45c0.94,3.86,4.32,5.89,7.07,6.87
		l5.19,1.84c3.98,1.38,4.97,3.58,5.47,5.66C252.83,99.43,251.53,102.49,247.57,103.46z M118.84,190.99l-10.21-5.51
		c-1.96-1.07-7.3-3.84-8.45-5.38c-0.25-0.36-0.13-1.4,0.39-2.89l0.24-0.64c-0.12-0.4-0.71-0.72-1.11-0.49
		c-0.7,1.5-1.26,2.63-2.25,4.46c-0.87,1.62-1.69,3.05-2.84,4.97c-0.06,0.42,0.6,0.83,1.02,0.66l0.48-0.68
		c1.14-1.59,1.76-2.14,2.28-2.18c1.71-0.12,7.3,2.83,9.3,3.92l9.13,4.94c0.9,0.48,1.58,0.85,1.7,1.13l-0.04,0.09
		c-3.13,0.9-6.65,1.7-11.54,2.88l-6.89,1.63c-2.35,0.55-10.7,2.55-13.34,2.24c-0.21,0.6-0.57,1.35-0.93,2.02
		c-0.42,0.76-1.63,3.04-2.73,4.76c-0.02,0.43,0.62,0.78,1.02,0.66l0.47-0.68c0.69-0.96,1.54-1.82,2.47-2.1
		c1.46-0.37,2.38,0.07,3.57,0.72l12.34,6.67c2.05,1.11,7.29,3.88,8.5,5.31c0.35,0.47,0.23,1.29-0.17,2.33l-0.49,1.22
		c0.12,0.4,0.75,0.68,1.12,0.5c0.72-1.54,1.29-2.72,2.26-4.51c0.86-1.58,1.71-3.05,2.84-4.92c-0.06-0.41-0.55-0.74-1.03-0.66
		l-0.84,1.26c-0.66,1.02-1.38,1.74-1.99,1.74c-1.67,0.04-7.25-2.92-9.26-4l-9.31-5.03c-1.28-0.69-2.23-1.26-2.66-1.71l0.04-0.09
		c1.43-0.38,6.5-1.4,8.45-1.84l16.63-3.81c6.24-1.43,8.4-1.86,9.4-1.98c0.25-0.47,0.18-0.84-0.04-1.07
		C125.21,194.43,120.12,191.68,118.84,190.99z M111.26,373.02c-0.24-0.21-1.09,0.02-1.16,0.36l0.44,1.5
		c0.83,2.71,0.19,3.07-4.54,4.97l-20.04,8.06c-1.49,0.59-1.52,0.66-2.05-0.69l-1.29-3.21c-1-2.48-1.32-4.34-0.97-5.68
		c0.22-0.87,1.77-1.86,2.84-2.45c0.18-0.33-0.13-1.1-0.56-1.13c-1.3,0.68-5.07,1.83-7.11,2.07c-0.15,0.16,0.01,0.68,0.2,0.87
		c1.44,0.2,1.69,0.57,2.67,3L87,398.94c0.84,2.07,1.47,3.55,0.14,4.39c-0.08,0.19,0.2,0.76,0.35,0.86c1.92-0.41,5.07-0.9,7.39-0.98
		c0.29-0.33,0.26-1.05-0.16-1.31c-1.33-0.04-2.5-0.08-3.92-0.78c-1.49-0.7-2.57-3.15-3.35-5.08l-1-2.48
		c-0.54-1.35-0.5-1.37,0.89-1.93l20.13-8.09c4.73-1.91,5.5-1.96,6.75,0.52l0.79,1.57c0.38,0.26,1.1-0.13,1.13-0.46
		c-1.25-2.84-1.94-4.4-2.66-6.21C112.76,377.18,112.21,375.63,111.26,373.02z M79.46,357.25l17.15-3.32
		c5.01-0.96,5.5-0.96,6.49,1.62l0.31,0.79c0.34,0.23,1.08-0.02,1.17-0.33c-0.4-1.84-0.82-3.45-1.21-5.5
		c-0.36-1.85-0.62-3.48-1.02-6.08c-0.2-0.26-1.08-0.19-1.22,0.14l0.12,1.41c0.23,2.72-0.39,3.08-5.38,4.05l-6.72,1.31
		c-1.43,0.26-1.55,0.19-1.98-2.1l-2.63-13.64c-0.45-2.29-0.37-2.4,1.06-2.68l6.72-1.3c5-0.97,5.48-1.05,6.52,1.76l0.32,0.88
		c0.34,0.24,1.1-0.01,1.18-0.33c-0.5-2.08-0.89-3.78-1.27-5.73c-0.36-1.86-0.61-3.49-0.96-5.8c-0.21-0.25-1.08-0.19-1.22,0.13
		l0.08,1.17c0.21,2.84-0.4,3.04-5.4,4.01l-17.16,3.32c-5,0.97-5.73,1.02-6.56-1.69l-0.29-0.99c-0.24-0.24-1.07,0.02-1.16,0.33
		c0.51,2.12,0.87,3.74,1.23,5.59c0.38,1.95,0.64,3.58,0.98,5.79c0.2,0.26,1.06,0.19,1.21-0.13l-0.09-0.92
		c-0.25-2.88,0.44-3.12,5.45-4.08l5.48-1.06c1.48-0.28,1.54-0.19,1.98,2.09l2.63,13.63c0.45,2.29,0.42,2.4-1.06,2.68l-5.48,1.07
		c-5.01,0.96-5.74,1.01-6.56-1.7l-0.27-0.89c-0.25-0.25-1.09,0.02-1.18,0.33c0.5,2.02,0.85,3.63,1.21,5.5
		c0.39,2.04,0.62,3.68,1.02,6.03c0.19,0.26,1.07,0.19,1.21-0.14L74,361.22C73.71,358.71,74.45,358.21,79.46,357.25z M139.93,173.41
		l-0.85,0.88c-2,2.08-2.6,1.74-6.7-1.35l-13.79-10.42c-4.11-3.1-4.71-3.68-3.18-6.11l0.66-1.02c0.02-0.36-0.73-0.8-1.03-0.65
		c-1.38,1.99-2.34,3.33-3.51,4.88c-1.23,1.62-2.27,2.91-3.8,4.79c-0.06,0.32,0.58,0.92,0.9,0.81l0.81-0.91
		c1.91-2.15,2.63-1.72,6.74,1.38l13.78,10.42c4.11,3.1,4.59,3.59,3.14,6.07l-0.62,1.06c0.05,0.41,0.74,0.81,1.03,0.67
		c1.38-2,2.33-3.36,3.56-4.98c1.17-1.55,2.21-2.84,3.75-4.72C140.91,173.91,140.27,173.3,139.93,173.41z M150.45,137.19
		c-1.89-5.06-3.28-9.2-3.9-11.78c-0.26-1.17-0.15-2.08,0.62-2.97l0.97-1.1c0.01-0.33-0.54-0.89-0.91-0.79
		c-1.08,1.19-2.12,2.26-3.27,3.39c-1.32,1.29-2.67,2.54-3.71,3.42c-0.12,0.38,0.32,0.96,0.77,0.93l0.69-0.53
		c1.35-1.06,1.97-1.11,2.2-0.86c0.24,0.23,0.58,0.66,1.02,1.65c0.87,2.08,3.06,7.6,4.36,10.94c1,2.62,3.03,7.62,4.19,10.97
		c-5.6-2.27-11.1-4.71-16.63-7.18c-3.65-1.58-6.07-2.89-6.49-3.17c-0.23-0.3-0.16-0.79,0.99-2.25l0.46-0.57
		c0.04-0.44-0.54-0.9-0.91-0.8c-1.4,1.5-2.59,2.71-4.11,4.21c-1.49,1.45-2.63,2.5-3.71,3.41c-0.1,0.45,0.33,0.97,0.77,0.94l0.7-0.54
		c1.66-1.29,2.89-1.07,5.58,0.1l20.83,9.12c2.01,0.89,4.29,1.97,6.1,3.05c0.24-0.09,0.45-0.23,0.63-0.4
		c0.14-0.13,0.24-0.31,0.27-0.49c-1.21-2.4-3.5-8.03-5.23-12.59L150.45,137.19z M514.99,230.71l-16.57,4.89
		c-4.93,1.46-5.61,1.55-6.75-1.09l-0.48-1.13c-0.37-0.19-1.09,0.12-1.15,0.45c0.77,2.3,1.3,3.86,1.88,5.81
		c0.54,1.86,0.95,3.46,1.55,5.81c0.21,0.24,1.1,0.09,1.2-0.25l-0.21-1.2c-0.48-2.84,0.15-3.13,5.08-4.59l16.58-4.88
		c4.93-1.45,5.75-1.6,6.79,1.08l0.44,1.14c0.27,0.23,1.07-0.12,1.14-0.43c-0.79-2.3-1.29-3.87-1.83-5.73
		c-0.59-1.96-1.02-3.55-1.6-5.91c-0.23-0.23-1.09-0.08-1.19,0.26l0.26,1.19C520.69,228.94,519.93,229.26,514.99,230.71z
		 M72.45,308.54l17.47,0.01c5.09,0,5.82,0.25,6.06,3.02l0.15,1.6c0.29,0.29,1.07,0.19,1.21-0.11c-0.1-2.86-0.14-4.51-0.14-6.59
		v-4.36c0.01-4.33,0.06-8.64,0.15-13.01c-1.31-0.63-5.04-1.84-6.74-2.19c-0.44,0.19-0.58,0.88-0.34,1.21
		c2.52,1.27,4.22,2.58,4.71,3.44c0.53,1.08,0.73,2.48,0.73,6.21c0,4.27-0.54,5.29-1.12,5.88c-0.83,0.78-2.46,0.92-5.05,0.92
		l-6.85-0.01c-1.26,0-1.31-0.14-1.3-1.6v-2.82c0-1.89,0.05-3.06,0.24-3.74c0.25-0.96,0.97-1.3,1.84-1.5l1.9-0.44
		c0.29-0.24,0.29-1.06-0.05-1.26c-1.07,0-2.91,0.18-4.65,0.18c-1.84,0-3.73-0.18-4.9-0.18c-0.34,0.18-0.34,1.02-0.05,1.26l1.99,0.39
		c1.21,0.24,1.5,0.59,1.7,1.17c0.19,0.57,0.28,2.08,0.28,4.12v2.82c0,1.46,0,1.6-1.36,1.6h-9.71c-1.84,0-1.94,0-1.94-1.46l0.01-3.48
		c0-2.14,0.05-3.7,0.29-4.71c0.63-2.53,2.33-2.96,4.61-3.69c0.3-0.24,0.19-1.02-0.09-1.22c-2.14,0.2-5.63,0.48-6.45,0.78
		c0.15,0.58,0.14,3.45,0.14,6.54l0,9.13c0,1.98-0.05,3.62-0.15,5.72c0.15,0.3,1.02,0.4,1.21,0.1l0.1-0.78
		C66.67,308.64,67.4,308.54,72.45,308.54z M482.08,197.46l6.15-3c1.31-0.64,1.44-0.59,2.46,1.5l6.1,12.48
		c1.03,2.1,0.98,2.22-0.34,2.86l-6.14,3c-4.59,2.24-5.01,2.45-6.75,0l-0.54-0.76c-0.39-0.13-1.05,0.3-1.05,0.63
		c1.02,1.87,1.84,3.42,2.71,5.2c0.83,1.71,1.5,3.21,2.43,5.35c0.27,0.2,1.11-0.1,1.15-0.45l-0.38-1.11
		c-0.93-2.68-0.41-3.04,4.17-5.28l15.7-7.67c4.58-2.23,5.27-2.46,6.78-0.07l0.54,0.87c0.3,0.18,1.04-0.29,1.04-0.62
		c-1.04-1.93-1.81-3.38-2.64-5.08c-0.87-1.78-1.54-3.29-2.45-5.34c-0.26-0.2-1.08,0.1-1.12,0.45l0.32,0.87
		c0.99,2.71,0.39,3.12-4.2,5.34l-5.03,2.46c-1.34,0.66-1.44,0.6-2.46-1.5l-6.09-12.48c-1.02-2.09-1.02-2.2,0.33-2.86l5.03-2.45
		c4.58-2.23,5.27-2.47,6.77-0.07l0.48,0.79c0.31,0.18,1.04-0.29,1.05-0.61c-1-1.84-1.76-3.3-2.59-5c-0.92-1.88-1.55-3.4-2.56-5.56
		c-0.25-0.19-1.07,0.1-1.12,0.45l0.47,1.17c0.93,2.35,0.33,3.02-4.25,5.26l-15.7,7.66c-4.58,2.24-5.05,2.36-6.67,0.14l-0.5-0.68
		c-0.4-0.14-1.05,0.29-1.05,0.62c0.86,1.69,1.68,3.12,2.6,5c0.83,1.7,1.5,3.21,2.57,5.6c0.26,0.19,1.09-0.1,1.13-0.45l-0.48-1.33
		C477,200.21,477.5,199.69,482.08,197.46z M504.66,372.61c-7.98-3.56-17.66-0.77-22.05,9.08c-3.82,8.56-0.35,18.28,8.59,22.27
		c7.81,3.48,17.5,1.64,22.07-8.6C517.35,386.23,513.53,376.55,504.66,372.61z M512.24,394c-3.78,8.47-13.11,8.18-20.43,4.92
		c-8.74-3.89-10.48-10.72-8.09-16.05c3.89-8.73,13.82-8.12,20.38-5.2C513.82,382,514.3,389.39,512.24,394z M472.54,181.29
		c-2.96,0.84-7.88,1.1-11.67-3.89c-4.81-6.34-4.23-14.88,3.9-21.04c7.99-6.07,15.57-3.89,20.06,2.02c4.25,5.6,2.56,9.63,0.36,12.22
		c-0.03,0.44,0.45,0.99,0.87,0.98c2.12-2.09,4.41-4.13,5.27-4.85c-0.31-0.32-0.43-0.64-0.66-1.21c-0.88-2.2-2.69-5.46-4.27-7.54
		c-3.05-4.03-6.85-6.8-11.21-7.95c-4.51-1.21-9.64-0.35-13.94,2.91c-4.99,3.79-6.69,8.85-6.46,13.55c0.24,4.26,2.06,8.12,4.71,11.59
		c1.88,2.47,4.57,4.83,5.52,5.44c0.48,0.31,0.98,0.65,1.41,1.06c1.18,0.02,4.49-0.91,6.7-2.16
		C473.29,182.05,472.94,181.4,472.54,181.29z M531.93,305.55c-0.78,0.11-1.69-0.23-3.4-0.99l-12.85-5.58
		c-5.33-2.3-8.41-3.81-10.59-4.79c-1.72-0.76-2.2-1.85-2.24-3.02l-0.07-1.61c-0.22-0.3-1.01-0.25-1.22,0.04
		c-0.02,1.32,0,3.06-0.08,4.67c-0.15,2.28-0.23,3.77-0.39,5.03c0.18,0.45,0.95,0.49,1.22,0.16l0.21-1.59
		c0.16-1.16,0.46-1.39,1.04-1.36c0.53,0.03,1.82,0.44,3.98,1.26l5.01,1.95c0.99,0.39,1.13,0.68,1.07,1.89l-0.36,7.32
		c-0.07,1.45-0.23,1.63-1.31,1.93l-6.69,1.8c-1.17,0.33-2.06,0.54-2.6,0.5c-0.48-0.01-0.74-0.71-0.78-1.73l-0.08-1.41
		c-0.22-0.35-1.01-0.33-1.22,0.04c-0.01,1.41,0,3.25-0.12,5.58c-0.1,2.19-0.24,3.88-0.44,5.86c0.19,0.25,0.96,0.38,1.22,0.05
		l0.22-1.3c0.33-2.07,1.1-2.67,5.33-3.86l19.8-5.7c2.16-0.62,4.44-1.29,6.6-1.81c0.35-0.08,0.47-0.42,0.48-0.71
		C533.03,307.59,532.2,306.72,531.93,305.55z M527.81,306.32c-0.6,0.26-1.93,0.64-3.11,0.97l-8.03,2.24
		c-1.33,0.37-1.52,0.26-1.45-1.15l0.29-5.96c0.07-1.36,0.13-1.4,1.22-0.96l8.28,3.46c1.43,0.61,2.57,1.14,2.81,1.3L527.81,306.32z
		 M515.27,329.48c-4.18-0.93-8.25-0.26-11.73,1.95c-4.5,2.82-7.22,7.65-8.48,13.28c-0.57,2.56-0.77,6.1-0.67,8.75
		c0.04,0.95,0.04,1.85-0.09,2.41c0.1,0.22,0.38,0.29,0.57,0.17c0.51-0.77,1.71-0.81,3.6-0.39l2.65,0.59
		c2.4,0.54,3.72,0.89,3.51,2.93l-0.07,0.78c0.2,0.39,0.93,0.5,1.2,0.22c0.25-1.58,0.58-3.2,0.99-5.04c0.63-2.8,1.24-5.39,1.64-6.75
		c-0.07-0.36-0.91-0.59-1.19-0.26l-0.71,2.03c-0.98,2.86-1.3,2.94-5.28,2.05l-1.88-0.42c-1.52-0.34-2.31-0.77-2.6-1.07
		c-0.69-0.71-0.91-2.59-0.26-5.53c2.13-9.53,10.32-12.63,19.43-10.59c7.1,1.58,12.75,7.07,10.69,16.27
		c-1.08,4.84-3.48,8.03-8.9,8.21c-0.33,0.22-0.48,1.09-0.14,1.31c2.93,0.21,5.47,0.47,7.03,0.82c0.04-0.59,0.69-1.98,1.08-2.84
		c0.36-0.75,1.45-3.15,2.05-5.85c1.6-7.16,0.43-12.34-2.18-16.26C523.09,332.61,519.3,330.37,515.27,329.48z M436.05,109.74
		c-1.55-1.17-2.83-2.2-4.4-3.51c-0.32-0.07-0.92,0.58-0.8,0.91l0.57,0.55c2.03,1.98,1.7,2.57-1.37,6.64l-10.54,13.94
		c-3.07,4.05-3.52,4.5-5.98,3.08l-1.05-0.63c-0.41,0.06-0.81,0.75-0.66,1.04c1.87,1.3,3.23,2.25,4.92,3.54
		c1.55,1.16,2.83,2.2,5.06,4c0.32,0.06,0.94-0.58,0.82-0.91l-1.24-1.11c-2.14-1.92-1.78-2.56,1.29-6.61l4.05-5.36
		c0.76-1,0.9-0.96,2.06-0.08l2.64,1.99c1.48,1.12,2.41,1.89,2.83,2.45c0.56,0.78,0.46,1.56,0.14,2.4l-0.76,1.8
		c0.11,0.44,0.68,0.88,1.02,0.76c0.66-0.88,1.61-2.47,2.66-3.86c1.09-1.43,2.43-2.88,3.14-3.82c0.02-0.35-0.64-0.84-1-0.76
		l-1.54,1.3c-1,0.85-1.46,0.8-2.01,0.64c-0.58-0.2-1.88-1.05-3.47-2.25l-2.64-1.98c-1.15-0.89-1.26-0.97-0.47-2.03l6.2-8.2
		c1.11-1.48,1.17-1.55,2.33-0.67l2.36,1.79c1.63,1.23,2.91,2.19,3.59,3.07c1.56,1.96,0.94,3.76-0.07,5.73
		c0.09,0.43,0.72,0.72,1.02,0.59c1.02-1.53,2.39-3.42,3.74-5.2c-0.58-0.26-2.83-1.96-5.3-3.84L436.05,109.74z M283.07,492.57
		c-6.35-0.56-10.79,3.13-11.24,8.27c-0.34,3.84,1.96,6.71,4.92,8.81c-3.79,1.73-6.55,4.19-6.87,8.01c-0.49,5.53,3.96,8.57,9.46,9.05
		c7.39,0.65,11.33-2.91,11.75-7.8c0.36-4.14-1.76-7.08-5.17-9.76c3.21-1.41,6.23-3.65,6.55-7.27
		C292.94,496.63,289.39,493.12,283.07,492.57z M284.2,520.21c-0.24,2.78-1.95,4.26-4.16,4.07c-2.37-0.21-4.06-2.74-3.78-5.96
		c0.22-2.47,1.12-4.72,3.27-6.32C282.05,513.74,284.54,516.4,284.2,520.21z M286.39,500.69c-0.23,2.6-1.19,4.81-2.78,6.31
		c-3.55-2.28-5.44-4.9-5.21-7.59c0.25-2.87,2.2-4.55,4.35-4.37C285.34,495.26,286.64,497.88,286.39,500.69z M307.77,96.61
		l-1.55-0.18c-2.81-0.31-2.9-1.05-2.77-6.15l0.53-21.58c0.04-1.6,0-1.66,1.46-1.62l3.44,0.08c2.67,0.07,4.5,0.5,5.6,1.36
		c0.71,0.55,1.02,2.35,1.13,3.57c0.24,0.31,1.05,0.33,1.26-0.06c-0.11-1.45,0.33-5.38,0.91-7.35c-0.1-0.2-0.62-0.26-0.87-0.17
		c-0.77,1.24-1.2,1.34-3.83,1.27l-19.64-0.49c-2.23-0.05-3.83-0.03-4.09-1.6c-0.15-0.14-0.77-0.12-0.92-0.02
		c-0.39,1.93-1.2,5.01-2.03,7.18c0.19,0.4,0.86,0.66,1.25,0.37c0.57-1.21,1.08-2.26,2.28-3.3c1.24-1.08,3.9-1.12,5.99-1.05
		l2.67,0.05c1.46,0.03,1.45,0.09,1.41,1.59l-0.53,21.68c-0.12,5.1-0.38,5.82-3.15,6l-1.75,0.1c-0.39,0.23-0.31,1.06-0.03,1.22
		c3.1-0.02,4.81-0.03,6.75,0.02c1.94,0.04,3.59,0.15,6.35,0.31C307.94,97.68,308.06,96.81,307.77,96.61z M404.99,89.99
		c-8.92-4.53-18.76-1.21-23.15,7.45c-3.97,7.79-1.67,17.61,7.94,22.49c8.36,4.24,18.25,1.27,22.69-7.48
		C416.33,104.83,414.98,95.07,404.99,89.99z M407.46,111.6c-4.33,8.53-11.24,9.92-16.45,7.28c-8.52-4.33-7.42-14.22-4.16-20.63
		c4.81-9.48,12.21-9.58,16.73-7.3C411.84,95.15,411.08,104.46,407.46,111.6z M278.06,98.78c0.27-0.18,0.26-1.07-0.04-1.23h-1.22
		c-2.89,0-3.06-0.66-3.68-5.76l-2.06-17.16c-0.62-5.1-0.62-5.93,2.19-6.51l1.19-0.24c0.27-0.23,0.08-1.08-0.23-1.18
		c-2.4,0.39-4.04,0.62-5.96,0.85c-2.02,0.25-3.67,0.39-6.09,0.59c-0.28,0.18-0.26,1.06,0.05,1.21l1.22-0.05
		c2.86-0.09,3.06,0.72,3.69,5.82l2.05,17.15c0.62,5.11,0.6,5.79-2.2,6.48l-1.19,0.29c-0.25,0.33-0.06,1.1,0.24,1.2
		c2.4-0.38,4.03-0.64,6.05-0.88C273.99,99.11,275.64,98.97,278.06,98.78z M312.65,502.64c-6.64,0.42-11.66,5.18-11.24,11.66
		c0.3,4.86,3.7,8.04,8.87,7.72c1.68-0.09,3.3-1,4.23-1.66c0.14-0.45,0.11-1.1-0.24-1.4c-0.77,0.11-1.46,0.21-2.19-0.23
		c-2.3-1.27-3.32-4.57-3.48-7.16c-0.23-3.57,1.07-6.24,3.55-6.4c2.38-0.15,4.48,2.97,4.81,8.32c0.67,10.46-4.23,16.3-6.69,18.63
		c-1.69,1.62-4.25,3.08-7.58,4.21c-0.25,0.39-0.14,1.36,0.36,1.6c6.56-0.81,11.63-3.61,15.02-6.91c5.04-5.02,6.8-11.42,6.45-16.99
		C324.07,506.91,320.03,502.18,312.65,502.64z M354.91,71.97c-1.48-0.29-2.85-0.61-4.56-1.04c-0.41,0.11-0.59,0.77-0.32,1.16
		l0.84,0.27c1.11,0.36,1.91,0.87,1.85,1.15c-0.11,0.58-2.52,3.46-4.34,5.68c-1.98,2.48-4.09,4.93-6.06,7.16
		c-1.21-3.65-2.22-7.76-3.29-11.63c-0.14-0.53-0.84-3.48-0.74-3.96c0.07-0.38,0.46-0.55,2.16-0.46l0.64,0.02
		c0.34-0.23,0.49-0.98,0.08-1.22c-1.2-0.14-2.93-0.43-5.12-0.87c-2.28-0.45-3.99-0.83-5.49-1.22c-0.38,0.12-0.55,0.77-0.33,1.16
		l1.28,0.5c1.39,0.52,2.05,0.91,3.05,4.36l3.46,12.06c0.85,2.94,0.87,3.59,0.36,6.21l-0.48,2.43c-1.01,5.09-1.24,5.74-4.07,5.47
		l-1.49-0.14c-0.34,0.23-0.4,1.02-0.15,1.22c2.55,0.4,4.26,0.69,6.26,1.08c1.9,0.38,3.52,0.75,6.45,1.43
		c0.32-0.09,0.57-0.84,0.33-1.19l-1.77-0.5c-2.55-0.7-2.67-1.52-1.68-6.61l0.5-2.48c0.72-3.66,0.95-4.07,3.77-7.27l4.01-4.59
		c3.19-3.63,5.22-6.34,7.78-6.28l1.38,0.02c0.39-0.22,0.47-0.89,0.15-1.2C357.72,72.49,356.39,72.26,354.91,71.97z M352.63,498.09
		c-3.13-1.52-6.86-1.85-10.46-0.92c-6.32,1.66-10.81,6.76-10.91,12.45c-0.02,0.95,0.09,1.91,0.33,2.85
		c1.7,6.47,9.17,10.16,16.68,8.2c6.32-1.65,10.81-6.75,10.91-12.44c0.02-0.96-0.11-1.91-0.33-2.85
		C358.01,502.23,355.81,499.63,352.63,498.09z M347.47,517.55c-3.64,0.93-7.6-2.17-8.83-6.91c-0.26-1.01-0.39-2.03-0.37-3.03
		c0.07-3.66,1.96-6.59,4.73-7.3c3.63-0.95,7.58,2.16,8.82,6.9c0.26,1.02,0.38,2.03,0.37,3.04
		C352.11,513.89,350.22,516.84,347.47,517.55z"/>
</g>
<g id="TM" class="st0">
	<g class="st1">
		<path class="st3" d="M483.19,490.15h-4v-2.05h10.23v2.05h-4v10.55h-2.23V490.15z"/>
		<path class="st3" d="M491.75,488.1h2.36l3.83,5.96l3.83-5.96h2.36v12.6h-2.21v-9.04l-3.98,5.94h-0.07l-3.94-5.91v9h-2.18V488.1z"
			/>
	</g>
</g>
</svg>
