<?xml version="1.0" standalone="no"?>
<!DOCTYPE svg PUBLIC "-//W3C//DTD SVG 20010904//EN"
 "http://www.w3.org/TR/2001/REC-SVG-20010904/DTD/svg10.dtd">
<svg version="1.0" xmlns="http://www.w3.org/2000/svg"
 width="432.000000pt" height="432.000000pt" viewBox="0 0 432.000000 432.000000"
 preserveAspectRatio="xMidYMid meet">
<metadata>
Created by potrace 1.14, written by Peter Selinger 2001-2017
</metadata>
<g transform="translate(0.000000,432.000000) scale(0.100000,-0.100000)"
fill="#000000" stroke="none">
<path d="M459 4285 c-3 -2 -20 -7 -39 -10 -70 -12 -176 -73 -240 -137 -59 -60
-117 -159 -137 -233 -4 -16 -9 -795 -10 -1730 -3 -1864 -7 -1730 56 -1860 34
-68 103 -145 175 -192 44 -30 67 -39 165 -71 48 -16 3384 -16 3456 0 115 25
219 90 295 186 46 59 65 95 90 175 19 60 20 104 20 1747 0 1499 -2 1692 -16
1745 -37 142 -138 266 -269 332 -109 56 -23 53 -1854 53 -929 0 -1690 -2
-1692 -5z"/>
</g>
</svg>
